<svg xmlns="http://www.w3.org/2000/svg" viewBox="0 0 352.882969 65.5875" role="img" aria-labelledby="title"><title id="title">Señor 808</title><path fill="#FFFFFF" d="M 25.5825 59.8275 C 38.48625 59.8275 46.36125 53.60625 46.36125 43.515 C 46.36125 35.64 41.41125 31.03875 30.22875 28.67625 L 25.2 27.585 C 18.765 26.17875 16.16625 24.39 16.16625 21.15 C 16.16625 17.325 19.92375 14.6475 25.2675 14.6475 C 30.8925 14.6475 34.5825 17.7075 34.97625 22.66875 L 45.10125 22.66875 C 44.78625 12.11625 37.29375 5.76 25.23375 5.76 C 13.32 5.76 5.3325 12.15 5.3325 21.67875 C 5.3325 29.17125 10.36125 33.98625 20.73375 36.23625 L 26.2575 37.42875 C 32.895 38.86875 35.64 40.8375 35.64 44.2125 C 35.64 48.29625 31.66875 50.92875 25.66125 50.92875 C 18.945 50.92875 14.895 47.55375 14.76 41.79375 L 4.32 41.79375 C 4.32 53.17875 12.16125 59.8275 25.5825 59.8275 z M 69.42375 59.8275 C 78.42375 59.8275 85.60125 54.6975 86.97375 47.30625 L 77.5125 47.30625 C 76.5675 50.1975 73.78875 52.05375 69.73875 52.05375 C 64.29375 52.05375 61.1325 48.51 60.9525 43.02 L 87.35625 43.02 L 87.35625 40.24125 C 87.35625 28.92375 80.01 21.015 69.075 21.015 C 58.42125 21.015 50.86125 29.1375 50.86125 40.455 C 50.86125 51.73875 58.17375 59.8275 69.42375 59.8275 z M 61.02 36.41625 C 61.5825 31.77 64.6425 28.89 69.28875 28.89 C 73.9575 28.89 77.05125 31.77 77.58 36.41625 L 61.02 36.41625 z M 103.283438 38.35125 C 103.283438 32.58 106.275937 30.015 110.562187 30.015 C 114.882188 30.015 117.379688 32.6475 117.379688 37.6425 L 117.379688 58.98375 L 127.718437 58.98375 L 127.718437 35.74125 C 127.718437 26.35875 122.622187 21.0825 114.713437 21.0825 C 109.369687 21.0825 105.600938 23.47875 103.103437 27.6975 L 103.103437 21.85875 L 92.910938 21.85875 L 92.910938 58.98375 L 103.283438 58.98375 L 103.283438 38.35125 z M 115.230937 16.1325 C 119.382188 16.1325 122.340937 12.79125 122.475938 6.91875 L 116.817188 6.91875 C 116.682187 9.135 116.040937 10.26 114.465937 10.26 C 112.069688 10.26 109.932187 6.705 105.465937 6.705 C 101.134687 6.705 98.322187 10.08 98.187187 15.9525 L 103.913438 15.9525 C 104.025937 13.95 104.757188 12.54375 106.197187 12.54375 C 108.413438 12.54375 110.809687 16.1325 115.230937 16.1325 z M 152.287031 59.8275 C 163.570781 59.8275 171.164531 52.0875 171.164531 40.455 C 171.164531 28.8225 163.570781 21.015 152.287031 21.015 C 141.037031 21.015 133.443281 28.8225 133.443281 40.455 C 133.443281 52.0875 141.037031 59.8275 152.287031 59.8275 z M 152.287031 51.42375 C 147.258281 51.42375 143.883281 47.35125 143.883281 40.455 C 143.883281 33.525 147.303281 29.41875 152.287031 29.41875 C 157.315781 29.41875 160.724531 33.525 160.724531 40.455 C 160.724531 47.35125 157.349531 51.42375 152.287031 51.42375 z M 176.864062 58.98375 L 187.236562 58.98375 L 187.236562 38.86875 C 187.236562 33.28875 190.364062 30.33 194.616562 30.33 C 196.371562 30.33 198.306562 30.47625 199.082812 30.51 L 199.082812 21.67875 C 198.239062 21.645 197.215312 21.61125 196.022812 21.61125 C 191.140312 21.61125 188.327812 23.72625 186.955312 28.18125 L 186.854062 28.18125 L 186.854062 21.85875 L 176.864062 21.85875 L 176.864062 58.98375 z M 237.584531 59.8275 C 249.464531 59.8275 257.508281 53.775 257.508281 44.92125 C 257.508281 37.85625 252.445781 32.76 244.964531 31.73625 C 251.500781 30.645 255.719531 26.325 255.719531 19.9575 C 255.719531 11.52 248.407031 5.76 237.584531 5.76 C 226.930781 5.76 219.472031 11.6325 219.472031 19.9575 C 219.472031 26.325 223.690781 30.67875 230.272031 31.73625 C 222.745781 32.76 217.717031 37.85625 217.717031 44.92125 C 217.717031 53.775 225.727031 59.8275 237.584531 59.8275 z M 237.584531 51.9525 C 232.195781 51.9525 228.539531 48.79125 228.539531 44.17875 C 228.539531 39.47625 232.342031 36.10125 237.584531 36.10125 C 242.849531 36.10125 246.652031 39.47625 246.652031 44.17875 C 246.652031 48.79125 242.995781 51.9525 237.584531 51.9525 z M 237.584531 28.08 C 232.904531 28.08 229.810781 25.23375 229.810781 20.91375 C 229.810781 16.61625 232.904531 13.80375 237.584531 13.80375 C 242.287031 13.80375 245.380781 16.61625 245.380781 20.91375 C 245.380781 25.23375 242.287031 28.08 237.584531 28.08 z M 283.138594 59.8275 C 296.323594 59.8275 304.344844 49.455 304.344844 32.8275 C 304.344844 16.1325 296.323594 5.76 283.138594 5.76 C 269.953594 5.76 261.943594 16.16625 261.943594 32.8275 C 261.943594 49.455 269.953594 59.8275 283.138594 59.8275 z M 283.138594 51.17625 C 276.321094 51.17625 272.136094 44.2125 272.136094 32.8275 C 272.136094 21.3975 276.321094 14.4 283.138594 14.4 C 289.967344 14.4 294.141094 21.3975 294.141094 32.8275 C 294.141094 44.2125 289.967344 51.17625 283.138594 51.17625 z M 328.639219 59.8275 C 340.519219 59.8275 348.562969 53.775 348.562969 44.92125 C 348.562969 37.85625 343.500469 32.76 336.019219 31.73625 C 342.555469 30.645 346.774219 26.325 346.774219 19.9575 C 346.774219 11.52 339.461719 5.76 328.639219 5.76 C 317.985469 5.76 310.526719 11.6325 310.526719 19.9575 C 310.526719 26.325 314.745469 30.67875 321.326719 31.73625 C 313.800469 32.76 308.771719 37.85625 308.771719 44.92125 C 308.771719 53.775 316.781719 59.8275 328.639219 59.8275 z M 328.639219 51.9525 C 323.250469 51.9525 319.594219 48.79125 319.594219 44.17875 C 319.594219 39.47625 323.396719 36.10125 328.639219 36.10125 C 333.904219 36.10125 337.706719 39.47625 337.706719 44.17875 C 337.706719 48.79125 334.050469 51.9525 328.639219 51.9525 z M 328.639219 28.08 C 323.959219 28.08 320.865469 25.23375 320.865469 20.91375 C 320.865469 16.61625 323.959219 13.80375 328.639219 13.80375 C 333.341719 13.80375 336.435469 16.61625 336.435469 20.91375 C 336.435469 25.23375 333.341719 28.08 328.639219 28.08 z"/></svg>